<?xml version="1.0" encoding="utf-8"?>
<svg viewBox="0 0 100 100" width="100" height="100" xmlns="http://www.w3.org/2000/svg">
  <path d="M 31.19 60.809 L 31.19 52.367 L 52.997 52.367 L 52.997 72.328 Q 49.818 75.404 43.786 77.745 Q 37.753 80.086 31.566 80.086 Q 23.705 80.086 17.86 76.788 Q 12.016 73.49 9.076 67.355 Q 6.137 61.219 6.137 54.007 Q 6.137 46.18 9.418 40.096 Q 12.699 34.012 19.022 30.765 Q 23.842 28.27 31.019 28.27 Q 40.35 28.27 45.597 32.184 Q 50.844 36.097 52.348 43.002 L 42.299 44.881 Q 41.239 41.19 38.317 39.054 Q 35.394 36.918 31.019 36.918 Q 24.389 36.918 20.475 41.122 Q 16.561 45.326 16.561 53.597 Q 16.561 62.518 20.526 66.979 Q 24.491 71.439 30.917 71.439 Q 34.096 71.439 37.291 70.191 Q 40.487 68.944 42.777 67.167 L 42.777 60.809 Z M 62.591 79.232 L 62.591 29.535 L 72.708 29.535 L 72.708 70.79 L 97.864 70.79 L 97.864 79.232 Z" style="fill: rgb(0, 168, 107);"/>
</svg>